<svg width="32" height="32" viewBox="0 0 32 32" fill="none" xmlns="http://www.w3.org/2000/svg">
<g clip-path="url(#clip0_1_877)">
<path d="M16.9375 32H15.0625C14.8475 31.9737 14.6325 31.9456 14.4169 31.9219C11.5231 31.6069 8.88188 30.6225 6.54812 28.8775C3.13562 26.3263 1.02312 22.95 0.25 18.7519C0.139375 18.1519 0.081875 17.5425 0 16.9375C0 16.3125 0 15.6875 0 15.0625C0.0175 14.9731 0.044375 14.8844 0.051875 14.7937C0.3175 11.4619 1.49688 8.48875 3.61812 5.91C6.13812 2.84625 9.3625 0.94875 13.2756 0.24625C13.8669 0.14 14.4669 0.080625 15.0625 0C15.6875 0 16.3125 0 16.9375 0C17.0181 0.016875 17.0981 0.04375 17.1794 0.05C19.935 0.256875 22.48 1.10375 24.77 2.64625C28.575 5.20875 30.9188 8.7525 31.7525 13.2744C31.8612 13.8656 31.9188 14.4663 32 15.0625V16.9375C31.9825 17.0181 31.955 17.0975 31.9487 17.1787C31.72 20.2012 30.7219 22.95 28.9244 25.385C26.37 28.8456 22.9662 30.9806 18.7256 31.7525C18.1344 31.86 17.5338 31.9188 16.9375 32ZM11.8144 18.7362V17.6925H9.49312C10.0306 17.1 10.5194 16.6006 10.9587 16.0619C11.2106 15.7525 11.4419 15.4006 11.58 15.03C11.9169 14.1256 11.5219 13.2244 10.69 12.9131C10.0969 12.6912 9.48687 12.675 8.88562 12.8869C8.08625 13.1681 7.52062 13.9906 7.615 14.7288H8.89625C8.98 14.505 9.03813 14.2825 9.14375 14.0844C9.26813 13.8513 9.49375 13.7719 9.755 13.7981C10.0125 13.8238 10.2013 13.9662 10.245 14.2087C10.2863 14.4344 10.3019 14.6931 10.2294 14.9031C10.1406 15.1613 9.97875 15.4106 9.79562 15.6163C9.2425 16.2381 8.6975 16.8744 8.08313 17.4319C7.65688 17.8194 7.66563 18.2425 7.71875 18.7375H11.8144V18.7362ZM14.7806 18.7375H16.1637V17.4869H16.7406V16.4275H16.1506V12.8169C15.79 12.8169 15.4581 12.8319 15.1281 12.8119C14.8925 12.7975 14.7556 12.8725 14.63 13.08C14.0044 14.1106 13.3819 15.145 12.7106 16.1469C12.4194 16.5819 12.3875 16.9981 12.5275 17.4963H14.78V18.7375H14.7806ZM22.9744 13.8763C22.2244 15.5244 21.4994 17.1188 20.7563 18.7525C21.1694 18.7525 21.5319 18.7375 21.8931 18.7575C22.1256 18.7706 22.2362 18.695 22.3288 18.4744C22.9788 16.9206 23.6569 15.3775 24.2987 13.82C24.4188 13.5287 24.4163 13.1875 24.475 12.84H20.1681V13.8756H22.9744V13.8763ZM16.8931 19.255C17.1513 19.255 17.37 19.2381 17.585 19.2594C17.8037 19.2812 17.8862 19.195 17.9494 18.9906C18.3794 17.59 18.8244 16.1944 19.2644 14.7969C19.4694 14.1456 19.6756 13.4944 19.8906 12.8144C19.6537 12.8144 19.455 12.83 19.26 12.8106C19.0037 12.785 18.8844 12.8687 18.805 13.1306C18.3269 14.7013 17.8256 16.2644 17.3337 17.8306C17.1881 18.2938 17.0469 18.7575 16.8931 19.2544V19.255Z" fill="#E21E26"/>
<path d="M14.7762 14.7581V16.4174H13.7319C14.0669 15.8412 14.3912 15.2837 14.7162 14.7262C14.7362 14.7368 14.7562 14.7474 14.7769 14.7581H14.7762Z" fill="#E21E26"/>
</g>
<defs>
<clipPath id="clip0_1_877">
<rect width="32" height="32" fill="white"/>
</clipPath>
</defs>
</svg>
